<?xml version="1.0" standalone="no"?>
<!DOCTYPE svg PUBLIC "-//W3C//DTD SVG 20010904//EN"
 "http://www.w3.org/TR/2001/REC-SVG-20010904/DTD/svg10.dtd">
<svg version="1.0" xmlns="http://www.w3.org/2000/svg"
 width="564.000000pt" height="323.000000pt" viewBox="0 0 564.000000 323.000000"
 preserveAspectRatio="xMidYMid meet">

<g transform="translate(0.000000,323.000000) scale(0.100000,-0.100000)"
fill="#000000" stroke="none">
<path d="M0 1615 l0 -1615 2820 0 2820 0 0 1615 0 1615 -2820 0 -2820 0 0
-1615z m4490 1515 c0 -5 -4 -10 -10 -10 -5 0 -10 5 -10 10 0 6 5 10 10 10 6 0
10 -4 10 -10z m-3727 -17 c-7 -2 -21 -2 -30 0 -10 3 -4 5 12 5 17 0 24 -2 18
-5z m104 -29 c-3 -3 -12 -4 -19 -1 -8 3 -5 6 6 6 11 1 17 -2 13 -5z m46 -1
c-7 -2 -19 -2 -25 0 -7 3 -2 5 12 5 14 0 19 -2 13 -5z m105 -64 c3 -12 2 -12
-6 0 -6 8 -15 10 -22 6 -9 -5 -11 -4 -6 4 10 15 28 10 34 -10z m42 -50 c0 -4
-5 -11 -12 -15 -7 -4 -8 -3 -4 4 4 6 2 22 -4 34 -11 22 -10 22 4 4 9 -11 16
-23 16 -27z m310 -49 c0 -5 -4 -10 -10 -10 -5 0 -10 5 -10 10 0 6 5 10 10 10
6 0 10 -4 10 -10z m1950 -10 c0 -5 -4 -10 -10 -10 -5 0 -10 5 -10 10 0 6 5 10
10 10 6 0 10 -4 10 -10z m-2205 -77 c27 -41 31 -53 14 -53 -5 0 -7 5 -3 12 5
8 2 9 -11 4 -15 -5 -16 -4 -5 9 7 8 9 15 4 15 -5 0 -14 11 -21 25 -16 36 -8
31 22 -12z m26 -86 c-10 -9 -11 -8 -5 6 3 10 9 15 12 12 3 -3 0 -11 -7 -18z
m221 -161 c3 2 8 -2 11 -10 4 -9 1 -18 -5 -22 -6 -4 -8 -3 -4 4 3 6 -3 13 -14
17 -11 3 -20 11 -20 17 0 7 4 7 13 -1 8 -6 16 -8 19 -5z m-102 -13 c0 -3 -6
-3 -14 0 -7 3 -20 0 -27 -6 -11 -10 -11 -9 0 5 11 15 41 15 41 1z m43 10 c-7
-2 -19 -2 -25 0 -7 3 -2 5 12 5 14 0 19 -2 13 -5z m-142 -26 c-10 -9 -11 -8
-5 6 3 10 9 15 12 12 3 -3 0 -11 -7 -18z m140 -25 c-7 -2 -18 1 -23 6 -8 8 -4
9 13 5 13 -4 18 -8 10 -11z m154 -2 c10 -11 14 -20 10 -20 -5 0 -1 -6 9 -13
15 -11 17 -17 7 -35 -6 -12 -14 -22 -17 -22 -2 0 0 9 6 19 8 16 6 23 -11 34
-11 8 -16 16 -11 18 6 2 4 10 -4 17 -10 9 -14 9 -14 1 0 -9 -3 -9 -14 0 -16
13 -49 4 -39 -12 4 -6 1 -7 -7 -2 -10 6 -9 11 5 22 27 19 59 16 80 -7z m2985
-30 c0 -5 -4 -10 -10 -10 -5 0 -10 5 -10 10 0 6 5 10 10 10 6 0 10 -4 10 -10z
m-2913 -49 c0 -11 -5 -18 -9 -15 -4 3 -5 11 -1 19 7 21 12 19 10 -4z m45 -21
c7 -11 20 -20 28 -21 8 0 4 -5 -9 -10 -13 -5 -26 -7 -29 -4 -3 3 0 5 6 5 9 0
9 5 0 19 -7 11 -16 17 -20 15 -4 -3 -8 0 -8 5 0 18 19 12 32 -9z m109 -64 c19
-15 26 -26 17 -22 -28 9 -21 -3 8 -14 14 -6 23 -14 20 -19 -3 -5 3 -11 13 -14
21 -5 58 -67 41 -67 -5 0 -10 8 -11 18 0 14 -2 14 -9 -3 -7 -18 -8 -16 -11 10
-4 29 -5 30 -61 30 -31 0 -59 3 -63 7 -4 3 10 5 29 3 32 -3 35 -1 32 18 -2 18
-10 21 -43 22 -23 0 -39 4 -36 8 3 5 18 5 34 2 23 -5 29 -3 29 10 0 14 -7 16
-37 12 -21 -3 -30 -3 -20 -1 9 3 17 9 17 14 0 5 -8 7 -17 4 -14 -5 -15 -4 -4
4 20 14 33 10 72 -22z m3654 -36 c3 -6 -1 -7 -9 -4 -18 7 -21 14 -7 14 6 0 13
-4 16 -10z m-3700 -10 c3 -5 1 -10 -4 -10 -6 0 -11 5 -11 10 0 6 2 10 4 10 3
0 8 -4 11 -10z m-87 -12 c19 -19 14 -29 -8 -16 -20 13 -27 28 -12 28 4 0 13
-5 20 -12z m54 -35 c-5 -10 -7 -33 -5 -50 3 -20 1 -33 -6 -33 -6 0 -8 7 -4 15
3 9 -3 25 -12 35 -15 17 -16 20 -3 20 9 0 18 7 22 15 3 8 8 15 11 15 3 0 2 -8
-3 -17z m120 -60 c12 -24 31 -32 22 -10 -5 15 15 19 59 10 15 -2 25 -8 22 -12
-2 -5 7 -6 22 -3 20 4 24 2 18 -9 -7 -12 -6 -12 7 -1 11 9 18 10 23 2 3 -5 17
-10 31 -10 13 0 24 -5 24 -11 0 -5 5 -7 10 -4 6 3 10 1 10 -4 0 -6 6 -10 13
-8 6 1 11 -6 11 -15 -1 -10 2 -18 7 -18 5 0 9 -6 9 -14 0 -8 5 -18 11 -22 8
-4 9 1 4 16 -6 19 -4 22 9 17 11 -4 15 -3 11 4 -4 6 -13 8 -21 5 -8 -3 -14 -1
-14 4 0 15 36 12 49 -3 6 -8 8 -17 4 -20 -3 -4 -2 -7 4 -7 6 0 14 8 17 17 4
10 4 14 0 11 -3 -4 -16 2 -27 13 -12 11 -28 17 -39 13 -10 -3 -18 0 -18 6 0 6
4 9 9 5 5 -3 12 -1 16 4 3 6 16 6 35 -1 17 -5 28 -13 26 -17 -3 -4 5 -13 17
-20 18 -11 20 -11 10 0 -23 23 -14 33 10 11 13 -12 32 -22 43 -22 21 0 44 -17
44 -33 0 -4 -6 -5 -12 -1 -10 6 -10 4 0 -7 22 -23 13 -31 -17 -13 -22 13 -32
14 -47 5 -16 -10 -15 -10 9 -5 17 4 27 2 27 -5 0 -14 -136 -15 -145 -1 -4 6
-11 8 -16 5 -8 -5 -14 15 -10 37 1 8 -11 9 -104 9 -42 0 -55 3 -45 9 10 6 11
10 3 10 -7 0 -13 7 -13 15 0 8 -8 15 -17 16 -12 1 -10 4 7 9 23 7 23 8 3 9
-12 1 -23 5 -25 10 -1 4 -14 11 -28 15 -25 7 -25 7 -5 -10 20 -16 20 -16 -2
-11 -13 3 -26 1 -29 -4 -9 -14 -24 -10 -24 6 0 10 -7 15 -17 13 -23 -4 -29 32
-11 64 l13 23 3 -25 c1 -14 8 -35 14 -47z m18 40 c0 -22 -2 -25 -10 -13 -13
20 -13 40 0 40 6 0 10 -12 10 -27z m3281 -146 c-10 -9 -11 -8 -5 6 3 10 9 15
12 12 3 -3 0 -11 -7 -18z m-1781 -57 c0 -5 -4 -10 -10 -10 -5 0 -10 5 -10 10
0 6 5 10 10 10 6 0 10 -4 10 -10z m-963 -6 c-3 -3 -12 -4 -19 -1 -8 3 -5 6 6
6 11 1 17 -2 13 -5z m43 -14 c13 -8 13 -10 -2 -10 -9 0 -20 5 -23 10 -8 13 5
13 25 0z m2579 7 c-2 -2 -11 -8 -20 -15 -12 -9 -16 -9 -16 1 0 7 9 14 20 14
11 1 18 1 16 0z m-98 -60 c-10 -9 -11 -8 -5 6 3 10 9 15 12 12 3 -3 0 -11 -7
-18z m-1862 -122 c64 -30 64 -41 1 -19 -103 36 -222 -15 -277 -120 -18 -33
-28 -186 -12 -186 5 0 12 -12 15 -26 8 -32 51 -77 101 -105 50 -29 153 -31
201 -5 19 9 36 16 38 14 2 -2 -24 -19 -58 -37 -80 -44 -167 -48 -241 -11 -66
33 -142 116 -157 171 -14 51 -8 152 10 174 7 8 10 15 6 15 -10 0 24 49 57 81
16 16 32 29 37 29 5 0 10 4 12 8 7 19 87 41 148 41 49 1 78 -5 119 -24z m1633
-82 c-6 -2 -9 -10 -5 -16 3 -7 3 -9 -2 -5 -4 4 -14 3 -21 -3 -15 -12 -34 -4
-34 14 0 7 4 6 10 -3 8 -13 11 -13 27 3 9 9 22 17 28 16 5 0 4 -3 -3 -6z m45
-9 c-3 -3 -12 -4 -19 -1 -8 3 -5 6 6 6 11 1 17 -2 13 -5z m-127 -49 c-7 -9
-15 -13 -19 -10 -3 3 1 10 9 15 21 14 24 12 10 -5z m-187 -41 c-5 -15 -3 -15
23 1 28 16 28 16 5 -1 -13 -10 -32 -18 -42 -19 -18 -2 -18 -1 -2 17 20 22 24
23 16 2z m126 -3 c12 -8 9 -11 -12 -16 -14 -4 -32 -5 -39 -2 -7 3 1 6 17 7 26
1 27 3 10 10 -13 6 -15 9 -5 9 8 0 22 -3 29 -8z m-2379 -21 c0 -5 -4 -10 -10
-10 -5 0 -10 5 -10 10 0 6 5 10 10 10 6 0 10 -4 10 -10z m2407 -12 c-3 -8 -6
-5 -6 6 -1 11 2 17 5 13 3 -3 4 -12 1 -19z m-137 -8 c0 -5 -5 -10 -11 -10 -5
0 -7 5 -4 10 3 6 8 10 11 10 2 0 4 -4 4 -10z m-60 -30 c0 -5 -5 -10 -11 -10
-5 0 -7 5 -4 10 3 6 8 10 11 10 2 0 4 -4 4 -10z m-23 -19 c10 -16 9 -20 -4
-25 -9 -4 -18 -4 -21 -1 -3 3 0 5 6 5 7 0 12 4 12 10 0 5 -6 8 -12 6 -7 -1
-10 -1 -5 1 4 3 5 9 1 14 -3 5 -1 9 3 9 5 0 14 -9 20 -19z m-53 -2 c-3 -6 0
-15 7 -20 9 -6 4 -7 -15 -3 -23 6 -27 4 -21 -7 8 -12 6 -12 -8 0 -10 8 -21 11
-24 7 -4 -4 -1 -11 7 -17 13 -8 13 -10 0 -20 -12 -9 -11 -10 8 -6 27 6 20 -8
-8 -16 -11 -3 -18 -1 -14 4 3 5 -1 9 -8 9 -9 0 -9 3 2 10 12 8 12 12 2 18 -10
7 -10 11 1 21 8 6 19 11 23 10 21 -3 35 2 29 11 -3 6 1 10 10 10 9 0 13 -5 9
-11z m-3804 -44 c14 -19 14 -19 -2 -6 -10 7 -18 18 -18 24 0 6 1 8 3 6 1 -2 9
-13 17 -24z m3707 4 c1 -15 -2 -19 -13 -15 -9 3 -21 6 -27 6 -7 0 -1 7 13 14
14 8 25 14 25 15 1 1 1 -8 2 -20z m-61 -27 c-2 -4 0 -14 5 -22 8 -13 10 -13
18 0 7 10 6 17 -2 22 -8 5 -6 8 6 8 14 0 17 -5 12 -22 -7 -23 -7 -23 9 -3 14
18 15 18 16 3 0 -10 -3 -18 -7 -19 -30 -3 -47 -9 -54 -21 -6 -9 -9 -8 -15 5
-9 25 -25 10 -20 -19 3 -13 -2 -30 -9 -38 -8 -7 -11 -17 -7 -21 4 -5 1 -5 -6
-1 -7 4 -10 12 -7 17 4 5 2 9 -4 9 -18 0 -23 -21 -8 -38 8 -9 12 -23 10 -29
-3 -7 1 -13 8 -13 7 0 9 -3 6 -6 -11 -11 -36 16 -30 32 3 8 0 14 -6 14 -6 0
-11 10 -12 23 0 22 0 22 -12 -2 -9 -19 -9 -25 2 -29 10 -3 11 -6 1 -12 -9 -6
-5 -13 14 -25 14 -10 26 -22 26 -28 0 -6 -10 -1 -22 10 -13 11 -33 20 -45 18
-15 -1 -19 3 -15 13 3 10 1 13 -6 8 -7 -4 -12 -3 -12 2 0 5 -12 7 -26 4 -20
-3 -23 -7 -12 -14 9 -7 7 -8 -9 -5 -13 3 -28 -2 -39 -14 -13 -14 -21 -16 -36
-8 -15 8 -19 8 -14 0 4 -6 1 -11 -8 -11 -21 0 -29 -17 -10 -24 8 -3 12 -2 9 4
-3 6 -3 11 2 11 4 1 21 3 37 5 16 2 32 7 35 11 12 16 35 14 48 -3 21 -28 15
-39 -7 -13 l-19 24 1 -27 c2 -16 6 -28 11 -28 5 0 7 -7 3 -15 -3 -8 -1 -15 5
-15 6 0 7 -5 3 -11 -5 -8 -13 -4 -24 11 -19 25 -57 24 -52 -1 1 -9 -4 -16 -12
-16 -11 0 -12 6 -4 26 5 14 6 23 3 19 -4 -4 -18 -3 -31 2 -18 7 -22 6 -18 -5
3 -8 13 -11 21 -8 11 4 14 2 11 -8 -3 -9 -18 -14 -41 -13 -37 0 -47 -9 -26
-22 7 -4 -1 -12 -21 -20 -18 -8 -33 -14 -35 -14 -1 0 -2 20 -1 45 0 44 0 45
34 45 22 0 31 -4 26 -12 -4 -7 -3 -8 5 -4 6 4 9 12 6 17 -4 5 -1 9 5 9 6 0 9
4 6 9 -13 20 86 81 132 81 11 0 31 9 46 21 14 11 26 18 26 14 0 -4 7 1 16 9 8
9 20 14 25 11 5 -4 9 -1 9 5 0 8 10 10 28 6 15 -3 21 -3 15 0 -7 3 -13 12 -13
19 0 19 30 46 42 39 6 -4 8 1 3 15 -4 13 -2 21 5 21 6 0 9 -4 6 -8z m31 -84
c-3 -8 -6 -5 -6 6 -1 11 2 17 5 13 3 -3 4 -12 1 -19z m-61 -63 c-9 -9 -16 -13
-16 -8 0 12 22 34 28 28 2 -2 -3 -11 -12 -20z m247 -35 c3 -11 1 -20 -4 -20
-5 0 -9 9 -9 20 0 11 2 20 4 20 2 0 6 -9 9 -20z m24 -12 c-3 -7 -5 -2 -5 12 0
14 2 19 5 13 2 -7 2 -19 0 -25z m-3627 -42 c0 -2 -7 -7 -16 -10 -8 -3 -12 -2
-9 4 6 10 25 14 25 6z m2951 -31 c1 -8 1 -24 1 -35 0 -34 -1 -38 -23 -43 -16
-4 -19 -2 -15 10 5 13 4 14 -9 3 -15 -12 -21 -3 -16 24 1 5 -5 3 -14 -4 -8 -7
-19 -10 -22 -6 -4 4 -2 11 6 15 9 6 6 10 -10 14 -13 4 -25 4 -28 2 -2 -3 1 -5
7 -5 7 0 12 -9 12 -20 0 -11 -6 -20 -12 -20 -7 0 -25 -7 -40 -14 -18 -9 -28
-11 -28 -4 0 7 -4 7 -12 1 -20 -15 -50 -24 -43 -13 3 6 1 10 -4 10 -6 0 -11
-4 -11 -8 0 -5 -37 -9 -82 -9 -64 0 -76 2 -53 8 17 5 51 9 76 7 31 -1 56 4 74
16 18 12 37 16 56 12 16 -3 31 -1 35 6 5 8 2 9 -9 5 -21 -8 -22 2 -1 31 11 16
25 22 52 21 57 -2 87 -13 84 -32 -2 -9 2 -17 8 -17 6 0 8 5 5 10 -3 6 0 10 7
10 8 0 6 5 -5 11 -9 6 -15 14 -12 20 9 14 25 11 26 -6z m199 -9 c0 -11 -19
-15 -25 -6 -3 5 1 10 9 10 9 0 16 -2 16 -4z m-3005 -175 c3 -5 2 -12 -3 -15
-5 -3 -9 1 -9 9 0 17 3 19 12 6z m-4 -48 c13 -16 12 -17 -3 -4 -10 7 -18 15
-18 17 0 8 8 3 21 -13z m4070 -12 c-17 -11 4 -25 22 -15 7 5 7 1 -2 -10 -13
-16 -15 -16 -24 -1 -7 13 -11 14 -24 3 -15 -12 -15 -11 -2 10 8 12 21 22 29
22 12 0 12 -2 1 -9z m-3631 -41 c8 -5 11 -10 5 -10 -5 0 -17 5 -25 10 -8 5
-10 10 -5 10 6 0 17 -5 25 -10z m64 -25 c11 -1 27 -11 36 -23 10 -12 21 -18
26 -14 5 4 3 0 -4 -9 -6 -9 -8 -20 -4 -25 4 -4 -1 -3 -10 5 -10 7 -14 19 -11
28 5 12 3 14 -7 8 -8 -5 -11 -4 -7 2 9 14 -26 23 -44 12 -11 -5 -15 -2 -15 11
0 10 5 16 10 12 6 -3 19 -7 30 -7z m-61 -18 c-5 -8 -8 -7 -11 1 -2 7 -9 9 -14
6 -7 -4 -8 -2 -4 4 4 6 13 9 21 6 8 -4 12 -11 8 -17z m3502 3 c-3 -5 -12 -10
-18 -10 -7 0 -6 4 3 10 19 12 23 12 15 0z m-3345 -84 c0 -6 -7 -1 -15 10 -8
10 -15 23 -15 28 0 6 7 1 15 -10 8 -10 15 -23 15 -28z m3267 18 c-3 -3 -12 -4
-19 -1 -8 3 -5 6 6 6 11 1 17 -2 13 -5z m-74 -19 c-3 -9 -8 -14 -10 -11 -3 3
-2 9 2 15 9 16 15 13 8 -4z m-149 -20 c-6 -16 -84 -17 -84 -1 0 5 16 6 35 3
19 -3 37 -1 40 4 9 14 15 11 9 -6z m301 5 c-3 -5 -14 -10 -23 -9 -14 0 -13 2
3 9 27 11 27 11 20 0z m-415 -20 c0 -5 -5 -10 -11 -10 -5 0 -7 5 -4 10 3 6 8
10 11 10 2 0 4 -4 4 -10z m197 4 c-3 -3 -12 -4 -19 -1 -8 3 -5 6 6 6 11 1 17
-2 13 -5z m68 -4 c3 -5 1 -10 -4 -10 -6 0 -11 5 -11 10 0 6 2 10 4 10 3 0 8
-4 11 -10z m-3080 -38 c-3 -3 -11 0 -18 7 -9 10 -8 11 6 5 10 -3 15 -9 12 -12z
m2734 14 c-2 -2 -29 -6 -58 -9 -35 -4 -50 -2 -40 4 13 8 107 13 98 5z m-2699
-66 c0 -5 -2 -10 -4 -10 -3 0 -8 5 -11 10 -3 6 -1 10 4 10 6 0 11 -4 11 -10z
m11 -43 c-10 -9 -11 -8 -5 6 3 10 9 15 12 12 3 -3 0 -11 -7 -18z m39 -52 c14
-19 14 -19 -2 -6 -10 7 -18 18 -18 24 0 6 1 8 3 6 1 -2 9 -13 17 -24z m565
-333 c-3 -3 -11 0 -18 7 -9 10 -8 11 6 5 10 -3 15 -9 12 -12z m65 8 c-8 -5
-24 -9 -35 -9 -16 1 -16 2 5 9 35 11 48 11 30 0z m60 -1 c12 -8 10 -9 -9 -4
-17 5 -22 4 -16 -5 5 -9 4 -11 -4 -6 -6 4 -9 12 -6 17 8 12 16 11 35 -2z m73
-42 c3 -7 -3 -13 -14 -13 -13 0 -15 3 -7 13 6 7 12 13 13 13 2 0 5 -6 8 -13z
m-368 -37 c3 -6 -1 -7 -9 -4 -18 7 -21 14 -7 14 6 0 13 -4 16 -10z m40 -8 c-3
-3 -11 0 -18 7 -9 10 -8 11 6 5 10 -3 15 -9 12 -12z m322 -4 c-3 -8 -6 -5 -6
6 -1 11 2 17 5 13 3 -3 4 -12 1 -19z m38 2 c3 -6 -1 -7 -9 -4 -18 7 -21 14 -7
14 6 0 13 -4 16 -10z m66 -37 c13 -16 12 -17 -3 -4 -17 13 -22 21 -14 21 2 0
10 -8 17 -17z m63 -116 c11 -12 13 -18 5 -15 -8 3 -22 20 -32 39 -10 19 -12
25 -5 15 7 -11 21 -28 32 -39z"/>
<path d="M1690 2316 c0 -2 7 -9 15 -16 13 -11 14 -10 9 4 -5 14 -24 23 -24 12z"/>
<path d="M1690 2230 c0 -11 4 -20 9 -20 5 0 7 9 4 20 -3 11 -7 20 -9 20 -2 0
-4 -9 -4 -20z"/>
<path d="M1860 2155 c-10 -12 -7 -15 17 -20 15 -4 34 -8 41 -11 6 -2 12 1 12
6 0 6 5 10 11 10 5 0 8 -4 5 -9 -3 -5 1 -11 9 -15 8 -3 17 -1 20 4 8 13 -4 32
-15 25 -4 -3 -10 2 -14 10 -3 8 -11 15 -18 15 -9 0 -8 -3 2 -10 8 -5 13 -10
10 -11 -3 0 -20 -3 -37 -5 -37 -6 -46 12 -10 19 21 4 21 4 1 6 -12 0 -27 -6
-34 -14z"/>
<path d="M2100 2098 c0 -8 76 -6 84 3 3 2 -15 4 -40 4 -24 0 -44 -3 -44 -7z"/>
<path d="M2040 2080 c0 -5 5 -10 11 -10 5 0 7 5 4 10 -3 6 -8 10 -11 10 -2 0
-4 -4 -4 -10z"/>
<path d="M3865 1370 c-4 -6 1 -7 11 -3 11 4 15 2 11 -4 -4 -6 0 -16 7 -22 11
-9 14 -9 12 1 -4 32 -28 49 -41 28z"/>
<path d="M3730 1280 c0 -5 12 -10 28 -9 24 0 25 1 7 9 -27 12 -35 12 -35 0z"/>
<path d="M3625 1200 c3 -5 8 -10 11 -10 2 0 4 5 4 10 0 6 -5 10 -11 10 -5 0
-7 -4 -4 -10z"/>
<path d="M3532 1216 c7 -8 15 -12 17 -11 5 6 -10 25 -20 25 -5 0 -4 -6 3 -14z"/>
<path d="M3455 1200 c-3 -5 -1 -10 4 -10 6 0 11 5 11 10 0 6 -2 10 -4 10 -3 0
-8 -4 -11 -10z"/>
</g>
</svg>
